<?xml version="1.0" encoding="UTF-8" standalone="no"?>
<svg width="18px" height="18px" viewBox="0 0 18 18" version="1.1" xmlns="http://www.w3.org/2000/svg" xmlns:xlink="http://www.w3.org/1999/xlink" xmlns:sketch="http://www.bohemiancoding.com/sketch/ns">
    <!-- Generator: Sketch 3.4.4 (17249) - http://www.bohemiancoding.com/sketch -->
    <title>archives</title>
    <desc>Created with Sketch.</desc>
    <defs></defs>
    <g id="UI-Kit" stroke="none" stroke-width="1" fill="none" fill-rule="evenodd" sketch:type="MSPage">
        <g id="icons" sketch:type="MSArtboardGroup" transform="translate(-135.000000, -43.000000)" fill="#2F3338">
            <g id="icon:archive" sketch:type="MSLayerGroup" transform="translate(136.000000, 45.000000)">
                <path d="M5.35466667,3.34933333 L10.88,3.34933333 C11.1573333,3.34933333 11.392,3.11466667 11.392,2.83733333 C11.392,2.56 11.1573333,2.32533333 10.88,2.32533333 L5.35466667,2.32533333 C5.07733333,2.32533333 4.84266667,2.56 4.84266667,2.83733333 C4.84266667,3.11466667 5.07733333,3.34933333 5.35466667,3.34933333 L5.35466667,3.34933333 Z" id="Shape" sketch:type="MSShapeGroup"></path>
                <path d="M4.352,5.65333333 L11.8826667,5.65333333 C12.16,5.65333333 12.3946667,5.41866667 12.3946667,5.14133333 C12.3946667,4.864 12.16,4.62933333 11.8826667,4.62933333 L4.352,4.62933333 C4.07466667,4.62933333 3.84,4.864 3.84,5.14133333 C3.84,5.41866667 4.07466667,5.65333333 4.352,5.65333333 L4.352,5.65333333 Z" id="Shape" sketch:type="MSShapeGroup"></path>
                <path d="M15.936,7.296 L15.936,7.232 L15.936,7.18933333 C15.936,7.168 15.936,7.14666667 15.9146667,7.12533333 L15.9146667,7.104 L13.4186667,0.384 L13.4186667,0.384 C13.4186667,0.362666667 13.3973333,0.341333333 13.3973333,0.32 C13.3973333,0.32 13.3973333,0.298666667 13.376,0.298666667 C13.3546667,0.277333333 13.3546667,0.256 13.3333333,0.256 L13.312,0.234666667 C13.2906667,0.213333333 13.2693333,0.213333333 13.2693333,0.192 L13.248,0.170666667 C13.2266667,0.149333333 13.2053333,0.149333333 13.184,0.128 C13.184,0.128 13.1626667,0.128 13.1626667,0.106666667 C13.1413333,0.106666667 13.12,0.0853333333 13.0986667,0.0853333333 L13.0773333,0.0853333333 L13.0133333,0.0853333333 L12.9706667,0.0853333333 C12.9706667,0.0853333333 12.9706667,0.0853333333 12.9493333,0.0853333333 L3.02933333,0.0853333333 C2.90133333,0.0853333333 2.79466667,0.128 2.70933333,0.192 C2.624,0.256 2.53866667,0.341333333 2.496,0.448 L0.0853333333,7.04 C0.064,7.08266667 0.064,7.12533333 0.064,7.18933333 L0.064,7.21066667 L0.064,7.25333333 L0.064,7.31733333 L0.064,7.31733333 L0.064,7.36 L0.064,7.40266667 L1.06666667,13.7813333 C1.06666667,13.7813333 1.06666667,13.7813333 1.06666667,13.8026667 L1.06666667,13.8453333 C1.06666667,13.8666667 1.06666667,13.888 1.088,13.9093333 C1.088,13.9306667 1.088,13.9306667 1.10933333,13.952 C1.10933333,13.9733333 1.13066667,13.9946667 1.13066667,13.9946667 C1.13066667,14.016 1.152,14.016 1.152,14.0373333 C1.152,14.0586667 1.17333333,14.0586667 1.19466667,14.08 L1.216,14.1013333 C1.23733333,14.1226667 1.23733333,14.1226667 1.25866667,14.144 C1.28,14.144 1.28,14.1653333 1.30133333,14.1653333 C1.32266667,14.1653333 1.32266667,14.1866667 1.344,14.1866667 C1.36533333,14.1866667 1.36533333,14.208 1.38666667,14.208 C1.408,14.208 1.42933333,14.2293333 1.45066667,14.2293333 L1.472,14.2293333 L1.55733333,14.2293333 L1.55733333,14.2293333 L14.4426667,14.2293333 L14.4426667,14.2293333 L14.528,14.2293333 L14.5706667,14.2293333 C14.592,14.2293333 14.6133333,14.2293333 14.6346667,14.208 C14.656,14.208 14.656,14.1866667 14.6773333,14.1866667 C14.6986667,14.1866667 14.6986667,14.1653333 14.72,14.1653333 C14.72,14.08 14.72,14.08 14.7413333,14.08 C14.7626667,14.08 14.7626667,14.0586667 14.784,14.0373333 L14.8053333,14.016 C14.8266667,13.9946667 14.8266667,13.9946667 14.848,13.9733333 C14.848,13.9733333 14.8693333,13.952 14.8693333,13.9306667 C14.8693333,13.9093333 14.8906667,13.888 14.8906667,13.888 C14.8906667,13.8666667 14.912,13.8666667 14.912,13.8453333 C14.912,13.824 14.9333333,13.8026667 14.9333333,13.7813333 L14.9333333,13.7386667 C14.9333333,13.7386667 14.9333333,13.7386667 14.9333333,13.7173333 L15.936,7.33866667 L15.936,7.31733333 C15.936,7.33866667 15.936,7.31733333 15.936,7.296 L15.936,7.296 Z M13.9946667,13.1626667 L1.984,13.1626667 L1.13066667,7.78666667 L4.8,7.78666667 C5.03466667,9.344 6.37866667,10.5173333 8,10.5173333 C9.62133333,10.5173333 10.9653333,9.32266667 11.2,7.78666667 L14.848,7.78666667 L13.9946667,13.1626667 L13.9946667,13.1626667 Z M3.392,1.04533333 L12.5866667,1.04533333 L14.72,6.784 L10.688,6.784 C10.432,6.784 10.2186667,7.01866667 10.2186667,7.296 C10.2186667,8.53333333 9.216,9.536 7.97866667,9.536 C6.74133333,9.536 5.76,8.53333333 5.76,7.296 C5.76,7.01866667 5.52533333,6.784 5.248,6.784 L1.30133333,6.784 L3.392,1.04533333 L3.392,1.04533333 Z" id="Shape" sketch:type="MSShapeGroup"></path>
            </g>
        </g>
    </g>
</svg>