<?xml version="1.0" encoding="UTF-8" standalone="no"?>
<svg width="16px" height="16px" viewBox="0 0 16 16" version="1.1" xmlns="http://www.w3.org/2000/svg" xmlns:xlink="http://www.w3.org/1999/xlink" xmlns:sketch="http://www.bohemiancoding.com/sketch/ns">
    <!-- Generator: Sketch 3.4.4 (17249) - http://www.bohemiancoding.com/sketch -->
    <title>colapse</title>
    <desc>Created with Sketch.</desc>
    <defs></defs>
    <g id="UI-Kit" stroke="none" stroke-width="1" fill="none" fill-rule="evenodd" sketch:type="MSPage">
        <g id="icons" sketch:type="MSArtboardGroup" transform="translate(-108.000000, -62.000000)">
            <g id="icon-minus" sketch:type="MSLayerGroup" transform="translate(108.500000, 63.000000)">
                <path d="M11.9728,13.5 L2.7418,13.5 C1.5038,13.5 0.4998,12.496 0.4998,11.259 L0.4998,2.559 C0.4998,1.321 1.5038,0.318 2.7418,0.318 L11.9728,0.318 C13.2108,0.318 14.2138,1.321 14.2138,2.559 L14.2138,11.259 C14.2138,12.496 13.2108,13.5 11.9728,13.5" id="Fill-1" fill="#2F3338" sketch:type="MSShapeGroup"></path>
                <path d="M11.9728,13.5 L2.7418,13.5 C1.5038,13.5 0.4998,12.496 0.4998,11.259 L0.4998,2.559 C0.4998,1.321 1.5038,0.318 2.7418,0.318 L11.9728,0.318 C13.2108,0.318 14.2138,1.321 14.2138,2.559 L14.2138,11.259 C14.2138,12.496 13.2108,13.5 11.9728,13.5 L11.9728,13.5 Z" id="Stroke-3" stroke="#2F3338" sketch:type="MSShapeGroup"></path>
                <path d="M11.2688,7 L3.4458,7" id="Stroke-5" stroke="#FFFFFF" sketch:type="MSShapeGroup"></path>
            </g>
        </g>
    </g>
</svg>