<?xml version="1.0" encoding="UTF-8" standalone="no"?>
<svg width="18px" height="18px" viewBox="0 0 18 18" version="1.1" xmlns="http://www.w3.org/2000/svg" xmlns:xlink="http://www.w3.org/1999/xlink" xmlns:sketch="http://www.bohemiancoding.com/sketch/ns">
    <!-- Generator: Sketch 3.4.4 (17249) - http://www.bohemiancoding.com/sketch -->
    <title>contacts</title>
    <desc>Created with Sketch.</desc>
    <defs></defs>
    <g id="UI-Kit" stroke="none" stroke-width="1" fill="none" fill-rule="evenodd" sketch:type="MSPage">
        <g id="icons" sketch:type="MSArtboardGroup" transform="translate(-78.000000, -43.000000)" stroke="#2F3338" stroke-width="1.25">
            <g id="icon:face" sketch:type="MSLayerGroup" transform="translate(79.000000, 44.000000)">
                <path d="M8,16 C3.58866667,16 0,12.4113333 0,8 C0,3.58866667 3.58866667,0 8,0 C12.4113333,0 16,3.58866667 16,8 C16,12.4113333 12.4113333,16 8,16 L8,16 Z" id="Shape" sketch:type="MSShapeGroup"></path>
                <path d="M13.3702346,13.090781 C13.002364,12.837463 12.1125489,12.5722754 11.76376,12.5120244 C11.1792491,12.4105404 10.4506652,12.1999583 10.1926961,12.0625628 C10.1842419,11.9489189 10.17978,11.7183354 10.2031463,11.3416059 C10.217354,11.3260367 10.231914,11.3127404 10.2460042,11.2963757 C10.5841704,10.8413455 10.7492613,10.4200676 10.8235874,10.1353897 C11.0468006,9.98310684 11.2810512,9.68626899 11.4190183,9.11236733 C11.4987457,8.77961801 11.5585119,8.35947654 11.3118149,8.05854752 C11.5150669,5.92954283 10.1190745,4.86458592 9.29913878,4.58740846 C8.96707834,4.49035658 8.66930419,4.44444444 8.39254802,4.44444444 C8.32738057,4.44444444 8.26644019,4.4471719 8.20737852,4.45160401 C8.14702525,4.44683097 8.08514552,4.44444444 8.02338322,4.44444444 C7.74592253,4.44444444 7.44850064,4.49024293 7.13945429,4.5802489 C6.29650452,4.86435863 4.90086434,5.92942919 5.12172915,8.03718246 C4.8569497,8.3593629 4.91706814,8.77961801 4.99679552,9.11225369 C5.13476264,9.68626899 5.36854353,9.98299319 5.5922264,10.135276 C5.665848,10.4176811 5.8304692,10.8333904 6.16945735,11.2781926 C6.19294112,11.3091038 6.20667912,11.3333099 6.22722741,11.3587662 C6.24918474,11.7196992 6.24507508,11.9447141 6.23497706,12.0634719 C5.97559887,12.199731 5.24912858,12.410654 4.66520475,12.5117971 C4.31575091,12.5721265 3.32934464,13.1714323 2.96078125,13.4259374 C2.96078125,13.4259374 4.66520478,15.2750786 8.0233834,15.4008596 C11.5073434,15.4008596 13.3702346,13.090781 13.3702346,13.090781 Z" id="Path-Copy" sketch:type="MSShapeGroup"></path>
            </g>
        </g>
    </g>
</svg>